# Blender v2.71 (sub 0) OBJ File: ''
# www.blender.org
o Cube.001
v 1.000000 -1.000000 1.000000
v -1.000000 -1.000000 1.000000
v -1.000000 -1.000000 -1.000000
v -1.000000 1.000000 -1.000000
v -1.000000 1.000000 1.000000
v 0.999999 1.000000 1.000001
v 1.000000 -1.000000 -1.000000
v 1.000000 1.000000 -0.999999
v 0.999999 1.000000 1.000001
v 1.000000 -1.000000 1.000000
v 0.999999 1.000000 1.000001
v -1.000000 1.000000 1.000000
v -1.000000 1.000000 1.000000
v -1.000000 1.000000 -1.000000
v -1.000000 -1.000000 -1.000000
v 1.000000 -1.000000 -1.000000
v -1.000000 -1.000000 -1.000000
v -1.000000 1.000000 -1.000000
v 1.000000 -1.000000 -1.000000
v 1.000000 1.000000 -0.999999
v 1.000000 -1.000000 1.000000
v -1.000000 -1.000000 1.000000
v -1.000000 -1.000000 1.000000
v 1.000000 1.000000 -0.999999
vt 0.000100 0.999900
vt 0.999900 0.000100
vt 0.000100 0.000100
vt 0.999900 0.999900
vn 0.000000 1.000000 0.000000
vn 0.000000 -1.000000 -0.000000
vn -1.000000 0.000000 -0.000000
vn 0.000000 0.000000 -1.000000
vn 1.000000 0.000000 0.000000
vn 0.000000 -0.000000 1.000000
s off
f 1/1/1 3/2/1 2/3/1
f 4/1/2 6/2/2 5/3/2
f 7/2/3 9/1/3 8/4/3
f 10/2/4 12/1/4 11/4/4
f 13/3/5 15/4/5 14/2/5
f 16/4/6 18/3/6 17/1/6
f 19/4/1 3/2/1 1/1/1
f 20/4/2 6/2/2 4/1/2
f 21/3/3 9/1/3 7/2/3
f 22/3/4 12/1/4 10/2/4
f 23/1/5 15/4/5 13/3/5
f 24/2/6 18/3/6 16/4/6
